# AST/ASF file generated using VICON BodyLanguage
# -----------------------------------------------
:version 1.10
:name VICON
:units
  mass 1.0
  length 0.45
  angle deg
:documentation
   .ast/.asf automatically generated from VICON data using
   VICON BodyBuilder and BodyLanguage model FoxedUp or BRILLIANT.MOD
:root
   order TX TY TZ RX RY RZ
   axis XYZ
   position 0 0 0  
   orientation 0 0 0 
:bonedata
  begin
     id 1 
     name lhipjoint
     direction 0.561001 -0.76473 0.316963 
     length 2.4722 
     axis 0 0 0  XYZ
  end
  begin
     id 2 
     name lfemur
     direction 0.34202 -0.939693 0  
     length 7.59403  
     axis 0 0 20  XYZ
    dof rx ry rz
    limits (-160.0 20.0)
           (-70.0 70.0)
           (-60.0 70.0)
  end
  begin
     id 3 
     name ltibia
     direction 0.34202 -0.939693 0   
     length 7.89655   
     axis 0 0 20   XYZ
    dof rx
    limits (-10.0 170.0)
  end
  begin
     id 4 
     name lfoot
     direction 0.061296 -0.168409 0.98381   
     length 2.73287   
     axis -90 7.62852e-016 20   XYZ
    dof rx rz
    limits (-45.0 90.0)
           (-70.0 20.0)
  end
  begin
     id 5 
     name ltoes
     direction 1.53547e-011 -4.21984e-011 1   
     length 1.37057   
     axis -90 7.62852e-016 20   XYZ
    dof rx
    limits (-90.0 20.0)
  end
  begin
     id 6 
     name rhipjoint
     direction -0.559611 -0.765599 0.317323   
     length 2.46939  
     axis 0 0 0  XYZ 
  end
  begin
     id 7 
     name rfemur
     direction -0.34202 -0.939693 0   
     length 7.53712   
     axis 0 0 -20   XYZ
    dof rx ry rz
    limits (-160.0 20.0)
           (-70.0 70.0)
           (-70.0 60.0)
  end
  begin
     id 8 
     name rtibia
     direction -0.34202 -0.939693 0   
     length 8.12549   
     axis 0 0 -20   XYZ
    dof rx
    limits (-10.0 170.0)
 end
 begin
     id 9 
     name rfoot
     direction -0.066984 -0.184037 0.980634   
     length 2.67541  
     axis -90 -7.62852e-016 -20   XYZ
    dof rx rz
    limits (-45.0 90.0)
           (-20.0 70.0)
  end
  begin
     id 10 
     name rtoes
     direction -1.53549e-011 -4.21786e-011 1   
     length 1.34085   
     axis -90 -7.62852e-016 -20   XYZ
    dof rx
    limits (-90.0 20.0)
  end
  begin
     id 11 
     name lowerback
     direction -0.0522728 0.992594 -0.109658   
     length 2.05633   
     axis 0 0 0   XYZ
    dof rx ry rz
    limits (-20.0 45.0)
           (-30.0 30.0)
           (-30.0 30.0)
  end
  begin
     id 12 
     name upperback
     direction 0.00589338 0.999977 0.00335704   
     length 2.05845   
     axis 0 0 0   XYZ
    dof rx ry rz
    limits (-20.0 45.0)
           (-30.0 30.0)
           (-30.0 30.0)
  end
  begin
     id 13 
     name thorax
     direction 0.0292928 0.998059 0.0549487   
     length 2.09281   
     axis 0 0 0   XYZ
    dof rx ry rz
    limits (-20.0 45.0)
           (-30.0 30.0)
           (-30.0 30.0)
  end
  begin
     id 14 
     name lowerneck
     direction 0.0356368 0.980775 0.191858   
     length 1.84767   
     axis 0 0 0   XYZ
    dof rx ry rz
    limits (-20.0 45.0)
           (-30.0 30.0)
           (-30.0 30.0)
  end
  begin
     id 15 
     name upperneck
     direction -0.0227605 0.98931 -0.14404   
     length 1.89582   
     axis 0 0 0   XYZ
    dof rx ry rz
    limits (-20.0 45.0)
           (-30.0 30.0)
           (-30.0 30.0)
  end
  begin
     id 16
     name head
     direction -0.00932985 0.997511 -0.0698904  
     length 1.90213  
     axis 0 0 0   XYZ
    dof rx ry rz
    limits (-20.0 45.0)
           (-30.0 30.0)
           (-30.0 30.0)
  end
  begin
     id 17 
     name lclavicle
     direction 0.873442 0.479511 0.0846686  
     length 3.41193  
     axis 0 0 0   XYZ
    dof ry rz
    limits (-20.0 10.0)
           (0.0 20.0)
  end
  begin
     id 18 
     name lhumerus
     direction 1 -4.4897e-011 -5.62117e-018   
     length 5.59864   
     axis 180 -30 -90   XYZ
    dof rx ry rz
    limits (-60.0 90.0)
           (-90.0 90.0)
           (-90.0 90.0)
  end
  begin
     id 19
     name lradius
     direction 1 -4.48966e-011 -6.26295e-027   
     length 3.59542   
     axis 180 -30 -90   XYZ
    dof rx
    limits (-10.0 170.0)
  end
  begin
     id 20
     name lwrist
     direction 1 -4.48947e-011 -1.74096e-026   
     length 1.79771   
     axis 1.04567e-014 90 90   XYZ
    dof ry
    limits (-180.0 0.0)
 end
  begin
     id 21 
     name lhand
     direction 1 -4.49085e-011 -3.48469e-026   
     length 0.572014   
     axis 2.22196e-014 90 90   XYZ
    dof rx rz
    limits (-90.0 90.0)
           (-45.0 45.0)
  end
  begin
     id 22 
     name lfingers
     direction 1 -4.48884e-011 -6.96135e-026   
     length 0.461173   
     axis 4.44383e-014 90 90   XYZ
    dof rx
    limits (0.0 90.0)
  end
  begin
     id 23
     name lthumb
     direction 0.707107 -6.34976e-011 0.707107   
     length 0.662154   
     axis -90 45 -5.4397e-014   XYZ
    dof rx rz
    limits (-45.0 45.0)
           (-45.0 45.0)
  end
  begin
     id 24 
     name rclavicle
     direction -0.890242 0.443271 0.104786   
     length 3.46753  
     axis 0 0 0   XYZ 
    dof ry rz
    limits (-10.0 20.0)
           (-20.0 0.0)
  end
  begin
     id 25 
     name rhumerus
     direction -1 -4.48963e-011 -5.41723e-018  
     length 5.8094   
     axis 180 30 90   XYZ
    dof rx ry rz
    limits (-90.0 60.0)
           (-90.0 90.0)
           (-90.0 90.0)
  end
  begin
     id 26 
     name rradius
     direction -1 -4.48958e-011 -6.51059e-027   
     length 3.66953   
     axis 180 30 90   XYZ
    dof rx
    limits (-10.0 170.0)
  end
  begin
     id 27 
     name rwrist
     direction -1 -4.48975e-011 -1.74124e-026   
     length 1.83476   
     axis 1.04567e-014 -90 -90   XYZ
    dof ry
    limits (-180.0 0.0)
  end
  begin
     id 28
     name rhand
     direction -1 -4.49013e-011 -3.48326e-026   
     length 0.57843   
     axis 2.22196e-014 -90 -90   XYZ
    dof rx rz
    limits (-90.0 90.0)
           (-45.0 45.0)
  end
  begin
     id 29
     name rfingers
     direction -1 -4.49023e-011 -6.9669e-026   
     length 0.466345   
     axis 4.44383e-014 -90 -90   XYZ
    dof rx
    limits (0.0 90.0)
  end
  begin
     id 30
     name rthumb
     direction -0.707107 -6.34926e-011 0.707107   
     length 0.669581   
     axis -90 -45 5.4397e-014   XYZ
    dof rx rz
    limits (-45.0 45.0)
           (-45.0 45.0)
  end
:hierarchy
  begin
    root lhipjoint rhipjoint lowerback
    lhipjoint lfemur
    lfemur ltibia
    ltibia lfoot
    lfoot ltoes
    rhipjoint rfemur
    rfemur rtibia
    rtibia rfoot
    rfoot rtoes
    lowerback upperback
    upperback thorax
    thorax lowerneck lclavicle rclavicle
    lowerneck upperneck
    upperneck head
    lclavicle lhumerus
    lhumerus lradius
    lradius lwrist
    lwrist lhand lthumb
    lhand lfingers
    rclavicle rhumerus
    rhumerus rradius
    rradius rwrist
    rwrist rhand rthumb
    rhand rfingers
  end

#!OML:ASF H:\SkateBoarding\Project 1\Capture day 1\Session 1\Skater.ASF
:FULLY-SPECIFIED
:DEGREES
186
root 4.35082 18.5922 43.7019 -3.1564 30.8907 -3.032
lowerback 15.8396 3.62172 -2.03951
upperback 2.11102 4.36405 -1.46944
thorax -6.64361 2.1737 -1.34037
lowerneck -14.4281 -8.00478 -5.47319
upperneck 43.8021 -9.75296 -0.119458
head 19.7103 -4.5087 -0.985528
rclavicle -6.30147e-014 -2.38542e-015
rhumerus -7.8521 6.23507 -59.3545
rradius 34.0309
rwrist 2.58268
rhand -37.7704 1.9609
rfingers 7.12502
rthumb -10.8178 -27.7405
lclavicle -6.30147e-014 -2.38542e-015
lhumerus -24.8649 2.35498 32.4121
lradius 52.0248
lwrist 25.8683
lhand -25.8724 10.302
lfingers 7.12502
lthumb 0.668991 40.2807
rfemur -32.8436 -3.23976 20.8189
rtibia 47.7368
rfoot -25.5462 -0.711754
rtoes -12.7252
lfemur -25.2471 -3.1765 -9.87618
ltibia 48.731
lfoot -40.6409 12.235
ltoes -24.96
187
root 4.13837 18.5949 44.0028 -3.17368 30.6304 -2.97003
lowerback 15.8469 3.65532 -2.19876
upperback 2.06087 4.38936 -1.31562
thorax -6.7257 2.19075 -1.09703
lowerneck -14.3581 -7.99512 -5.49331
upperneck 43.9691 -9.72786 -0.148016
head 19.8006 -4.50165 -0.992826
rclavicle -6.95746e-014 -1.51076e-014
rhumerus -7.64126 6.62073 -60.0882
rradius 34.3534
rwrist 2.13587
rhand -36.4861 2.11966
rfingers 7.12502
rthumb -9.5788 -27.6426
lclavicle -6.95746e-014 -1.51076e-014
lhumerus -26.1707 4.18361 31.3787
lradius 51.6781
lwrist 26.7375
lhand -26.5983 10.7551
lfingers 7.12502
lthumb -0.0321469 40.7348
rfemur -32.6152 -3.19032 20.6018
rtibia 47.8964
rfoot -25.7089 -0.437297
rtoes -12.5619
lfemur -24.9279 -3.14361 -10.1106
ltibia 48.7056
lfoot -40.9035 12.3323
ltoes -25.0386
188
root 3.92167 18.6014 44.3039 -3.13707 30.4605 -2.92095
lowerback 15.7947 3.67073 -2.3799
upperback 2.00667 4.38797 -1.17861
thorax -6.77983 2.19576 -0.849627
lowerneck -14.2953 -8.00367 -5.51219
upperneck 44.1236 -9.75258 -0.132601
head 19.8915 -4.50804 -0.98955
rclavicle -2.78299e-014 2.22639e-014
rhumerus -7.53837 6.98132 -60.8608
rradius 34.8487
rwrist 1.43383
rhand -35.1346 2.34374
rfingers 7.12502
rthumb -8.27463 -27.4742
lclavicle -2.78299e-014 2.22639e-014
lhumerus -27.3906 6.08087 30.3091
lradius 51.2854
lwrist 27.6319
lhand -27.3888 11.185
lfingers 7.12502
lthumb -0.795605 41.1632
rfemur -32.4401 -3.14798 20.4008
rtibia 48.0317
rfoot -25.9005 -0.240738
rtoes -12.3806
lfemur -24.7326 -3.14553 -10.3145
ltibia 48.7085
lfoot -41.0429 12.4249
ltoes -25.1111
189
root 3.70135 18.6115 44.6045 -3.06132 30.3704 -2.90341
lowerback 15.6924 3.66912 -2.55074
upperback 1.94944 4.36689 -1.05712
thorax -6.80743 2.19123 -0.616913
lowerneck -14.2297 -8.03172 -5.53739
upperneck 44.2493 -9.82867 -0.0688873
head 19.9702 -4.52981 -0.971396
rclavicle -5.06901e-014 1.74931e-014
rhumerus -7.54846 7.49578 -61.6939
rradius 36.2978
rwrist 0.0855941
rhand -33.758 2.90503
rfingers 7.12502
rthumb -6.946 -26.961
lclavicle -5.06901e-014 1.74931e-014
lhumerus -28.53 8.01921 29.2157
lradius 50.8664
lwrist 28.5816
lhand -28.2598 11.6476
lfingers 7.12502
lthumb -1.63683 41.6211
rfemur -32.3181 -3.11491 20.2366
rtibia 48.1493
rfoot -26.0906 -0.148764
rtoes -12.1357
lfemur -24.6529 -3.18899 -10.4669
ltibia 48.7437
lfoot -41.0581 12.5
ltoes -25.1824
190
root 3.47821 18.6248 44.9039 -2.96402 30.3467 -2.92431
lowerback 15.5489 3.65305 -2.68928
upperback 1.89541 4.33323 -0.950851
thorax -6.80479 2.17988 -0.412822
lowerneck -14.1503 -8.08023 -5.56921
upperneck 44.3319 -9.95587 0.0391527
head 20.0233 -4.56818 -0.938988
rclavicle 5.50634e-014 -1.03368e-014
rhumerus -7.66653 8.15757 -62.589
rradius 38.8031
rwrist -1.94335
rhand -32.3013 3.70289
rfingers 7.12502
rthumb -5.53966 -26.2047
lclavicle 5.50634e-014 -1.03368e-014
lhumerus -29.6005 9.96152 28.1054
lradius 50.4419
lwrist 29.6046
lhand -29.1658 12.159
lfingers 7.12502
lthumb -2.51181 42.124
rfemur -32.2403 -3.09127 20.1142
rtibia 48.2552
rfoot -26.2627 -0.193646
rtoes -11.8399
lfemur -24.6643 -3.27764 -10.5614
ltibia 48.8093
lfoot -40.9725 12.541
ltoes -25.2374
